<svg width="86" height="40" viewBox="0 0 86 40" fill="none" xmlns="http://www.w3.org/2000/svg">
<path d="M2.304 32V8.32H6.848V32H2.304ZM11.8435 32V15.072H16.3875V32H11.8435ZM14.0835 11.584C13.2088 11.584 12.5262 11.3707 12.0355 10.944C11.5448 10.5173 11.2995 9.90933 11.2995 9.12C11.2995 8.39467 11.5448 7.808 12.0355 7.36C12.5475 6.89067 13.2302 6.656 14.0835 6.656C14.9582 6.656 15.6408 6.88 16.1315 7.328C16.6222 7.75467 16.8675 8.352 16.8675 9.12C16.8675 9.86667 16.6115 10.464 16.0995 10.912C15.6088 11.36 14.9368 11.584 14.0835 11.584ZM31.0008 32.32C30.2541 32.32 29.5288 32.2133 28.8248 32C28.1208 31.7867 27.4808 31.4987 26.9048 31.136C26.3288 30.752 25.8488 30.3253 25.4648 29.856C25.0808 29.3653 24.8354 28.864 24.7288 28.352L25.7528 27.968L25.5288 31.936H21.2408V8.32H25.7848V19.04L24.9208 18.688C25.0488 18.176 25.2941 17.6853 25.6568 17.216C26.0194 16.7253 26.4781 16.2987 27.0328 15.936C27.5874 15.552 28.1954 15.2533 28.8568 15.04C29.5181 14.8267 30.2008 14.72 30.9048 14.72C32.3768 14.72 33.6888 15.104 34.8408 15.872C35.9928 16.6187 36.8994 17.6533 37.5608 18.976C38.2434 20.2987 38.5848 21.8133 38.5848 23.52C38.5848 25.2267 38.2541 26.7413 37.5928 28.064C36.9314 29.3867 36.0248 30.432 34.8728 31.2C33.7421 31.9467 32.4514 32.32 31.0008 32.32ZM29.9128 28.448C30.7661 28.448 31.5021 28.2453 32.1208 27.84C32.7608 27.4133 33.2621 26.8373 33.6248 26.112C33.9874 25.3653 34.1688 24.5013 34.1688 23.52C34.1688 22.56 33.9874 21.7067 33.6248 20.96C33.2834 20.2133 32.7928 19.6373 32.1528 19.232C31.5128 18.8267 30.7661 18.624 29.9128 18.624C29.0594 18.624 28.3128 18.8267 27.6728 19.232C27.0328 19.6373 26.5314 20.2133 26.1688 20.96C25.8061 21.7067 25.6248 22.56 25.6248 23.52C25.6248 24.5013 25.8061 25.3653 26.1688 26.112C26.5314 26.8373 27.0328 27.4133 27.6728 27.84C28.3128 28.2453 29.0594 28.448 29.9128 28.448ZM42.022 32V15.072H46.406L46.566 20.512L45.798 19.392C46.054 18.5173 46.47 17.728 47.046 17.024C47.622 16.2987 48.294 15.7333 49.062 15.328C49.8513 14.9227 50.6727 14.72 51.526 14.72C51.8887 14.72 52.2407 14.752 52.582 14.816C52.9233 14.88 53.2113 14.9547 53.446 15.04L52.23 20.032C51.974 19.904 51.6647 19.7973 51.302 19.712C50.9393 19.6053 50.566 19.552 50.182 19.552C49.67 19.552 49.19 19.648 48.742 19.84C48.3153 20.0107 47.942 20.2667 47.622 20.608C47.302 20.928 47.046 21.312 46.854 21.76C46.6833 22.208 46.598 22.6987 46.598 23.232V32H42.022Z" fill="black"/>
<path d="M54 32L65.52 8L78 32" stroke="#19CC56" stroke-width="3"/>
<circle cx="62" cy="25" r="3" stroke="#19CC56" stroke-width="2"/>
<circle cx="70" cy="25" r="3" stroke="#19CC56" stroke-width="2"/>
</svg>
